<?xml version="1.0" encoding="utf-8"?>
<svg x="0px" y="0px" viewBox="0 0 100 125" xmlns="http://www.w3.org/2000/svg">
  <g transform="matrix(1.740469, 0, 0, 1.740469, -37.024323, 8.972748)">
    <path d="M 75.085 15.346 C 73.019 14.49 70.604 14.923 68.989 16.416 L 53.377 26.89 C 52.456 26.124 51.288 25.645 50 25.645 C 48.712 25.645 47.545 26.124 46.623 26.889 L 31.01 16.413 C 29.394 14.918 26.967 14.486 24.902 15.353 C 22.786 16.253 21.419 18.321 21.419 20.621 L 21.419 41.306 C 21.419 43.605 22.786 45.672 24.914 46.577 C 25.626 46.873 26.374 47.023 27.137 47.023 C 28.584 47.023 29.953 46.486 31.011 45.508 L 46.623 35.034 C 47.544 35.8 48.712 36.279 50 36.279 C 51.288 36.279 52.456 35.8 53.377 35.034 L 68.99 45.51 C 70.046 46.487 71.415 47.022 72.863 47.022 C 73.632 47.022 74.382 46.871 75.098 46.57 C 77.214 45.67 78.581 43.602 78.581 41.302 L 78.581 20.618 C 78.582 18.319 77.214 16.252 75.085 15.346 Z M 29.235 43.086 C 29.16 43.136 29.089 43.193 29.025 43.256 C 28.255 44.004 27.057 44.218 26.076 43.81 C 25.069 43.382 24.419 42.398 24.419 41.305 L 24.419 20.621 C 24.419 19.526 25.069 18.542 26.07 18.116 C 26.41 17.973 26.77 17.901 27.137 17.901 C 27.848 17.901 28.518 18.172 29.024 18.664 C 29.089 18.727 29.159 18.784 29.234 18.834 L 44.95 29.38 C 44.792 29.883 44.683 30.407 44.683 30.962 C 44.683 31.516 44.792 32.041 44.95 32.543 L 29.235 43.086 Z M 75.582 41.302 C 75.582 42.397 74.932 43.381 73.931 43.807 C 72.933 44.227 71.744 44.006 70.976 43.259 C 70.911 43.196 70.841 43.139 70.766 43.089 L 55.05 32.543 C 55.208 32.04 55.317 31.516 55.317 30.961 C 55.317 30.407 55.208 29.882 55.05 29.38 L 70.766 18.837 C 70.841 18.787 70.912 18.73 70.976 18.667 C 71.745 17.918 72.941 17.705 73.924 18.112 C 74.931 18.54 75.582 19.524 75.582 20.617 L 75.582 41.302 Z"/>
  </g>
</svg>