<?xml version="1.0" encoding="utf-8"?>
<svg x="0px" y="0px" viewBox="0 0 100 125" xmlns="http://www.w3.org/2000/svg">
  <g transform="matrix(1.766015, 0, 0, 1.766015, -38.299873, -25.424591)">
    <g>
      <path fill="none" d="M55.776,46.375c-1.17-1.739-3.155-2.885-5.404-2.885c-3.589,0-6.509,2.92-6.509,6.51    c0,3.589,2.92,6.51,6.509,6.51c3.59,0,6.51-2.92,6.51-6.51C56.882,48.659,56.474,47.412,55.776,46.375"/>
    </g>
    <path d="M75.086,34.385c-0.663-0.275-1.234-0.446-2.037-0.446c-1.41,0-2.714,0.524-3.782,1.516l-11.822,7.962   c-0.027,0.018-0.049,0.042-0.074,0.062c-1.751-1.878-4.235-3.065-6.999-3.065c-2.77,0-5.261,1.188-7.013,3.073l-11.977-8.036   c-1.642-1.519-4.021-1.936-6.108-1.06c-2.116,0.9-3.484,2.968-3.484,5.268v20.684c0,2.298,1.367,4.366,3.497,5.271   c0.713,0.295,1.46,0.445,2.222,0.445c1.446,0,2.815-0.537,3.873-1.515l11.976-8.034c1.752,1.885,4.243,3.074,7.013,3.074   c2.774,0,5.265-1.195,7.017-3.084c0.034,0.027,0.064,0.058,0.1,0.083l11.869,7.962c1.074,1.003,2.306,1.514,3.599,1.514   c0.7,0,1.418-0.15,2.139-0.453c1.978-0.841,3.112-2.761,3.112-5.268V39.656C78.209,37.15,77.075,35.231,75.086,34.385z    M29.607,62.125c-0.075,0.05-0.146,0.107-0.21,0.17c-0.77,0.749-1.967,0.962-2.948,0.555c-1.007-0.429-1.658-1.412-1.658-2.505   V39.66c0-1.095,0.651-2.079,1.652-2.505c1.013-0.425,2.174-0.212,2.954,0.548c0.065,0.063,0.135,0.12,0.21,0.17l12.078,8.104   c-0.57,1.225-0.897,2.585-0.897,4.023c0,1.438,0.327,2.797,0.897,4.023L29.607,62.125z M50.372,56.51   c-3.589,0-6.509-2.92-6.509-6.51c0-3.59,2.92-6.51,6.509-6.51c2.249,0,4.234,1.146,5.404,2.885   c0.698,1.037,1.106,2.284,1.106,3.625C56.882,53.59,53.962,56.51,50.372,56.51z M75.209,60.34c0,0.894-0.223,2.055-1.28,2.504   c-0.975,0.409-1.771,0.241-2.583-0.548c-0.065-0.063-0.135-0.12-0.21-0.17l-11.975-8.034c-0.033-0.022-0.07-0.036-0.104-0.056   c0.574-1.228,0.901-2.594,0.901-4.037c0-1.45-0.329-2.823-0.909-4.056c0.023-0.014,0.048-0.023,0.071-0.038l11.926-8.032   c0.074-0.05,0.144-0.106,0.208-0.169c0.53-0.515,1.117-0.766,1.794-0.766c0.294,0,0.468,0.042,0.875,0.211   c1.062,0.452,1.285,1.611,1.285,2.505V60.34z" style="fill: rgb(255, 0, 0);"/>
  </g>
</svg>