<?xml version="1.0" encoding="utf-8"?>
<svg x="0px" y="0px" viewBox="0 0 100 125" xmlns="http://www.w3.org/2000/svg">
  <g transform="matrix(1.740469, 0, 0, 1.740469, -37.023453, -24.153599)">
    <path d="M75.086,34.381c-2.062-0.856-4.481-0.425-6.096,1.069L50,48.189L31.01,35.447c-1.617-1.496-4.042-1.928-6.108-1.06   c-2.116,0.9-3.484,2.968-3.484,5.268v20.684c0,2.298,1.367,4.366,3.497,5.271c0.713,0.295,1.46,0.445,2.222,0.445   c1.446,0,2.815-0.537,3.873-1.515l18.989-12.74L68.99,64.544c1.056,0.977,2.425,1.512,3.873,1.512c0.769,0,1.519-0.151,2.235-0.452   c2.116-0.9,3.484-2.967,3.484-5.268V39.651C78.582,37.353,77.214,35.286,75.086,34.381z M29.235,62.12   c-0.075,0.05-0.146,0.107-0.21,0.17c-0.771,0.749-1.966,0.962-2.948,0.555c-1.007-0.429-1.658-1.412-1.658-2.505V39.655   c0-1.095,0.651-2.079,1.652-2.505c0.34-0.143,0.699-0.215,1.067-0.215c0.711,0,1.381,0.271,1.887,0.763   c0.065,0.063,0.135,0.12,0.21,0.17l18.073,12.127L29.235,62.12z M75.582,60.336c0,1.095-0.651,2.079-1.652,2.504   c-0.998,0.419-2.187,0.199-2.954-0.548c-0.065-0.063-0.135-0.12-0.21-0.17L52.692,49.996l18.073-12.125   c0.075-0.05,0.146-0.107,0.21-0.17c0.77-0.748,1.968-0.96,2.948-0.554c1.007,0.428,1.658,1.412,1.658,2.505V60.336z"/>
    <path d="M48.037,42.241c0.337,0.674,0.884,1.953,1.963,1.953s1.626-1.279,1.963-1.953l2.855-6.22   c0.161-0.365,0.13-0.788-0.087-1.127c-0.218-0.337-0.592-0.541-0.994-0.54H50h-3.738c-0.402,0-0.776,0.204-0.994,0.54   c-0.217,0.338-0.247,0.762-0.087,1.127L48.037,42.241z"/>
  </g>
</svg>