<svg xmlns="http://www.w3.org/2000/svg" xmlns:xlink="http://www.w3.org/1999/xlink" version="1.1" x="0px" y="0px" viewBox="0 0 100 125" enable-background="new 0 0 100 100" xml:space="preserve"><path d="M75.086,39.527c-2.061-0.856-4.481-0.425-6.096,1.069L51.5,52.329V31.798h14.731c0.829,0,1.5-0.671,1.5-1.5  s-0.671-1.5-1.5-1.5H50c-0.829,0-1.5,0.671-1.5,1.5v22.031L31.01,40.594c-1.617-1.496-4.043-1.928-6.108-1.06  c-2.116,0.9-3.484,2.968-3.484,5.268v20.684c0,2.298,1.367,4.366,3.497,5.271c0.713,0.295,1.46,0.445,2.222,0.445  c1.446,0,2.816-0.537,3.873-1.515L50,56.948L68.99,69.69c1.056,0.977,2.425,1.512,3.873,1.512c0.769,0,1.519-0.151,2.235-0.452  c2.116-0.9,3.484-2.967,3.484-5.268V44.798C78.582,42.499,77.214,40.432,75.086,39.527z M29.235,67.266  c-0.075,0.05-0.146,0.107-0.21,0.17c-0.769,0.748-1.966,0.961-2.948,0.554c-1.007-0.429-1.658-1.412-1.658-2.505V44.802  c0-1.095,0.651-2.079,1.652-2.505c0.34-0.143,0.699-0.215,1.067-0.215c0.711,0,1.381,0.271,1.887,0.763  c0.065,0.063,0.135,0.12,0.21,0.17l18.074,12.127L29.235,67.266z M75.582,65.482c0,1.095-0.651,2.079-1.652,2.504  c-0.998,0.419-2.186,0.199-2.954-0.548c-0.065-0.063-0.135-0.12-0.21-0.17L52.693,55.142l18.073-12.125  c0.075-0.05,0.146-0.107,0.21-0.17c0.771-0.748,1.967-0.96,2.948-0.554c1.007,0.428,1.658,1.412,1.658,2.505V65.482z"/><text x="0" y="115" fill="#000000" font-size="5px" font-weight="bold" font-family="'Helvetica Neue', Helvetica, Arial-Unicode, Arial, Sans-serif">Created by Marco Olgio</text><text x="0" y="120" fill="#000000" font-size="5px" font-weight="bold" font-family="'Helvetica Neue', Helvetica, Arial-Unicode, Arial, Sans-serif">from the Noun Project</text></svg>