<svg xmlns="http://www.w3.org/2000/svg" xmlns:xlink="http://www.w3.org/1999/xlink" version="1.1" x="0px" y="0px" viewBox="0 0 100 125" enable-background="new 0 0 100 100" xml:space="preserve"><g><path d="M75.085,34.38c-2.066-0.856-4.481-0.423-6.096,1.07L53.377,45.924c-0.921-0.766-2.089-1.245-3.377-1.245   c-1.288,0-2.455,0.479-3.377,1.244L31.01,35.447c-1.616-1.495-4.043-1.927-6.108-1.06c-2.116,0.9-3.483,2.968-3.483,5.268V60.34   c0,2.299,1.367,4.366,3.495,5.271c0.712,0.296,1.46,0.446,2.223,0.446c1.447,0,2.816-0.537,3.874-1.515l15.612-10.474   c0.921,0.766,2.089,1.245,3.377,1.245c1.288,0,2.456-0.479,3.377-1.245L68.99,64.544c1.056,0.977,2.425,1.512,3.873,1.512   c0.769,0,1.519-0.151,2.235-0.452c2.116-0.9,3.483-2.968,3.483-5.268V39.652C78.582,37.353,77.214,35.286,75.085,34.38z    M29.235,62.12c-0.075,0.05-0.146,0.107-0.21,0.17c-0.77,0.748-1.968,0.962-2.949,0.554c-1.007-0.428-1.657-1.412-1.657-2.505   V39.655c0-1.095,0.65-2.079,1.651-2.505c0.34-0.143,0.7-0.215,1.067-0.215c0.711,0,1.381,0.271,1.887,0.763   c0.065,0.063,0.135,0.12,0.21,0.17L44.95,48.414c-0.158,0.503-0.267,1.027-0.267,1.582c0,0.554,0.109,1.079,0.267,1.581   L29.235,62.12z M75.582,60.336c0,1.095-0.65,2.079-1.651,2.505c-0.998,0.42-2.187,0.199-2.955-0.548   c-0.065-0.063-0.135-0.12-0.21-0.17L55.05,51.577c0.158-0.503,0.267-1.027,0.267-1.582c0-0.554-0.109-1.079-0.267-1.581   l15.716-10.543c0.075-0.05,0.146-0.107,0.21-0.17c0.769-0.749,1.965-0.962,2.948-0.555c1.007,0.428,1.658,1.412,1.658,2.505V60.336   z"/></g><text x="0" y="115" fill="#000000" font-size="5px" font-weight="bold" font-family="'Helvetica Neue', Helvetica, Arial-Unicode, Arial, Sans-serif">Created by Marco Olgio</text><text x="0" y="120" fill="#000000" font-size="5px" font-weight="bold" font-family="'Helvetica Neue', Helvetica, Arial-Unicode, Arial, Sans-serif">from the Noun Project</text></svg>