<?xml version="1.0" encoding="utf-8"?>
<svg x="0px" y="0px" viewBox="0 0 61 71.25" xmlns="http://www.w3.org/2000/svg">
  <title>Group 155</title>
  <desc>Created with Sketch.</desc>
  <g stroke="none" stroke-width="1" fill="none" fill-rule="evenodd" transform="matrix(1, 0, 0, 1, 0.48221, 7.121585)">
    <g transform="translate(-480.000000, -2207.000000)" fill="#000000">
      <g transform="translate(480.000000, 2207.000000)">
        <path d="M2.0178,37.0035 L2.0178,55.0035 L6.0188,55.0035 L6.0178,37.0035 L2.0178,37.0035 Z M6.0178,57.0035 L2.0178,57.0035 C0.9148,57.0035 0.0178,56.1065 0.0178,55.0035 L0.0178,37.0035 C0.0178,35.9005 0.9148,35.0035 2.0178,35.0035 L6.0178,35.0035 C7.1208,35.0035 8.0178,35.9005 8.0178,37.0035 L8.0178,55.0035 C8.0178,56.1065 7.1208,57.0035 6.0178,57.0035 L6.0178,57.0035 Z"/>
        <path d="M40.0178,2.0035 L40.0178,6.0045 L58.0178,6.0035 L58.0178,2.0035 L40.0178,2.0035 Z M58.0178,8.0035 L40.0178,8.0035 C38.9148,8.0035 38.0178,7.1065 38.0178,6.0035 L38.0178,2.0035 C38.0178,0.9005 38.9148,0.0035 40.0178,0.0035 L58.0178,0.0035 C59.1208,0.0035 60.0178,0.9005 60.0178,2.0035 L60.0178,6.0035 C60.0178,7.1065 59.1208,8.0035 58.0178,8.0035 L58.0178,8.0035 Z"/>
        <path d="M8.0178,52.0035 L27.0178,52.0035 C42.4568,52.0035 55.0178,39.4425 55.0178,24.0035 L55.0178,8.0035 L43.0178,8.0035 L43.0178,24.0035 C43.0178,32.8255 35.8398,40.0035 27.0178,40.0035 L8.0178,40.0035 L8.0178,52.0035 Z M27.0178,54.0035 L7.0178,54.0035 C6.4658,54.0035 6.0178,53.5565 6.0178,53.0035 L6.0178,39.0035 C6.0178,38.4505 6.4658,38.0035 7.0178,38.0035 L27.0178,38.0035 C34.7378,38.0035 41.0178,31.7235 41.0178,24.0035 L41.0178,7.0035 C41.0178,6.4505 41.4658,6.0035 42.0178,6.0035 L56.0178,6.0035 C56.5698,6.0035 57.0178,6.4505 57.0178,7.0035 L57.0178,24.0035 C57.0178,40.5455 43.5598,54.0035 27.0178,54.0035 L27.0178,54.0035 Z"/>
        <path d="M19.0178,50.0035 L7.0178,50.0035 C6.4658,50.0035 6.0178,49.5565 6.0178,49.0035 C6.0178,48.4505 6.4658,48.0035 7.0178,48.0035 L19.0178,48.0035 C19.5698,48.0035 20.0178,48.4505 20.0178,49.0035 C20.0178,49.5565 19.5698,50.0035 19.0178,50.0035"/>
        <path d="M27.0178,50.0035 L24.0178,50.0035 C23.4648,50.0035 23.0178,49.5565 23.0178,49.0035 C23.0178,48.4505 23.4648,48.0035 24.0178,48.0035 L27.0178,48.0035 C28.3038,48.0035 29.5968,47.8995 30.8588,47.6965 C31.4038,47.6095 31.9168,47.9805 32.0048,48.5245 C32.0928,49.0695 31.7228,49.5835 31.1768,49.6715 C29.8098,49.8925 28.4108,50.0035 27.0178,50.0035"/>
        <path d="M38.0188,47.4507 C37.6498,47.4507 37.2948,47.2457 37.1208,46.8917 C36.8768,46.3967 37.0808,45.7977 37.5768,45.5537 C39.6778,44.5187 41.6168,43.1837 43.3368,41.5857 C43.7408,41.2097 44.3738,41.2317 44.7498,41.6377 C45.1258,42.0417 45.1028,42.6747 44.6988,43.0507 C42.8348,44.7817 40.7358,46.2277 38.4588,47.3477 C38.3168,47.4177 38.1668,47.4507 38.0188,47.4507"/>
        <path d="M46.2126,41.0035 C45.9866,41.0035 45.7596,40.9275 45.5716,40.7715 C45.1486,40.4175 45.0916,39.7865 45.4456,39.3625 C47.1306,37.3435 48.4646,35.0825 49.4096,32.6425 C49.6096,32.1275 50.1886,31.8725 50.7036,32.0705 C51.2186,32.2705 51.4746,32.8495 51.2746,33.3645 C50.2516,36.0085 48.8066,38.4575 46.9806,40.6445 C46.7826,40.8815 46.4986,41.0035 46.2126,41.0035"/>
        <path d="M51.8401,28.0035 C51.8001,28.0035 51.7601,28.0015 51.7191,27.9965 C51.1711,27.9305 50.7801,27.4325 50.8461,26.8845 C50.9601,25.9345 51.0181,24.9645 51.0181,24.0035 L51.0181,22.0035 C51.0181,21.4505 51.4651,21.0035 52.0181,21.0035 C52.5701,21.0035 53.0181,21.4505 53.0181,22.0035 L53.0181,24.0035 C53.0181,25.0445 52.9551,26.0935 52.8311,27.1225 C52.7701,27.6305 52.3391,28.0035 51.8401,28.0035"/>
        <path d="M52.0178,15.0035 C51.4658,15.0035 51.0178,14.5565 51.0178,14.0035 L51.0178,11.0035 C51.0178,10.4505 51.4658,10.0035 52.0178,10.0035 C52.5698,10.0035 53.0178,10.4505 53.0178,11.0035 L53.0178,14.0035 C53.0178,14.5565 52.5698,15.0035 52.0178,15.0035"/>
        <path d="M53.0178,18.0035 C53.0178,17.4515 52.5698,17.0035 52.0178,17.0035 C51.4658,17.0035 51.0178,17.4515 51.0178,18.0035 C51.0178,18.5555 51.4658,19.0035 52.0178,19.0035 C52.5698,19.0035 53.0178,18.5555 53.0178,18.0035"/>
      </g>
    </g>
  </g>
</svg>