<?xml version="1.0" encoding="utf-8"?>
<svg x="0px" y="0px" viewBox="0 0 61 71.25" xmlns="http://www.w3.org/2000/svg">
  <title>Group 155</title>
  <desc>Created with Sketch.</desc>
  <g stroke="none" stroke-width="1" fill="none" fill-rule="evenodd" transform="matrix(1, 0, 0, 1, 0.48221, 7.121585)">
    <g transform="translate(-480.000000, -2207.000000)" fill="#000000">
      <g transform="translate(480.000000, 2207.000000)">
        <path d="M 10.52 -6.495 L 10.52 11.504 L 14.521 11.504 L 14.52 -6.495 L 10.52 -6.495 Z M 14.52 13.505 L 10.52 13.505 C 9.416 13.505 8.52 12.606 8.52 11.504 L 8.52 -6.495 C 8.52 -7.598 9.416 -8.495 10.52 -8.495 L 14.52 -8.495 C 15.62 -8.495 16.52 -7.598 16.52 -6.495 L 16.52 11.504 C 16.52 12.606 15.62 13.505 14.52 13.505 L 14.52 13.505 Z" transform="matrix(0, 1, -1, 0, 15.025001, -10.015002)"/>
        <path d="M 45.519 45.504 L 45.519 49.505 L 63.519 49.503 L 63.519 45.504 L 45.519 45.504 Z M 63.519 51.503 L 45.519 51.503 C 44.416 51.503 43.519 50.607 43.519 49.503 L 43.519 45.504 C 43.519 44.401 44.416 43.504 45.519 43.504 L 63.519 43.504 C 64.622 43.504 65.518 44.401 65.518 45.504 L 65.518 49.503 C 65.518 50.607 64.622 51.503 63.519 51.503 L 63.519 51.503 Z" transform="matrix(0, 1, -1, 0, 102.021999, -7.015)"/>
        <path d="M 5.019 52.007 L 24.019 52.007 C 39.458 52.007 52.019 39.446 52.019 24.006 L 52.019 8.005 L 40.019 8.005 L 40.019 24.006 C 40.019 32.828 32.841 40.007 24.019 40.007 L 5.019 40.007 L 5.019 52.007 Z M 24.019 54.007 L 4.019 54.007 C 3.467 54.007 3.019 53.558 3.019 53.007 L 3.019 39.007 C 3.019 38.453 3.467 38.007 4.019 38.007 L 24.019 38.007 C 31.739 38.007 38.019 31.726 38.019 24.006 L 38.019 7.005 C 38.019 6.452 38.467 6.005 39.019 6.005 L 53.019 6.005 C 53.571 6.005 54.019 6.452 54.019 7.005 L 54.019 24.006 C 54.019 40.549 40.561 54.007 24.019 54.007 L 24.019 54.007 Z" transform="matrix(0, 1, -1, 0, 58.525001, 1.486997)"/>
        <path d="M 15.518 12.504 L 3.518 12.504 C 2.964 12.504 2.518 12.057 2.518 11.504 C 2.518 10.951 2.964 10.505 3.518 10.505 L 15.518 10.505 C 16.068 10.505 16.518 10.951 16.518 11.504 C 16.518 12.057 16.068 12.504 15.518 12.504" transform="matrix(0, 1, -1, 0, 21.022502, 1.986498)"/>
        <path d="M 9.18 27.163 L 6.18 27.163 C 5.627 27.163 5.18 26.716 5.18 26.163 C 5.18 25.61 5.627 25.163 6.18 25.163 L 9.18 25.163 C 10.466 25.163 11.759 25.059 13.021 24.856 C 13.566 24.769 14.079 25.14 14.167 25.684 C 14.255 26.229 13.885 26.743 13.339 26.831 C 11.972 27.052 10.573 27.163 9.18 27.163" transform="matrix(0, 1, -1, 0, 35.683144, 16.323205)"/>
        <path d="M 11.14 42.57 C 10.771 42.57 10.416 42.365 10.242 42.011 C 9.998 41.516 10.202 40.917 10.698 40.673 C 12.799 39.638 14.738 38.303 16.458 36.705 C 16.862 36.329 17.495 36.351 17.871 36.757 C 18.247 37.161 18.224 37.794 17.82 38.17 C 15.956 39.901 13.857 41.347 11.58 42.467 C 11.438 42.537 11.288 42.57 11.14 42.57" transform="matrix(0, 1, -1, 0, 53.642343, 25.364753)"/>
        <path d="M 19.955 51.264 C 19.729 51.264 19.502 51.188 19.314 51.032 C 18.891 50.678 18.834 50.047 19.188 49.623 C 20.873 47.604 22.207 45.343 23.152 42.903 C 23.352 42.388 23.931 42.133 24.446 42.331 C 24.961 42.531 25.217 43.11 25.017 43.625 C 23.994 46.269 22.549 48.718 20.723 50.905 C 20.525 51.142 20.241 51.264 19.955 51.264" transform="matrix(0, 1, -1, 0, 68.784273, 24.743648)"/>
        <path d="M 33.932 53.914 C 33.892 53.914 33.852 53.912 33.811 53.907 C 33.263 53.841 32.872 53.343 32.938 52.795 C 33.052 51.845 33.11 50.875 33.11 49.914 L 33.11 47.914 C 33.11 47.361 33.557 46.914 34.11 46.914 C 34.662 46.914 35.11 47.361 35.11 47.914 L 35.11 49.914 C 35.11 50.955 35.047 52.004 34.923 53.033 C 34.862 53.541 34.431 53.914 33.932 53.914" transform="matrix(0, 1, -1, 0, 84.434368, 16.393638)"/>
        <path d="M 46.019 53.005 C 45.467 53.005 45.019 52.556 45.019 52.005 L 45.019 49.005 C 45.019 48.451 45.467 48.005 46.019 48.005 C 46.571 48.005 47.019 48.451 47.019 49.005 L 47.019 52.005 C 47.019 52.556 46.571 53.005 46.019 53.005" transform="matrix(0, 1, -1, 0, 96.524001, 4.485996)"/>
        <path d="M 41.52 50.505 C 41.52 49.952 41.072 49.505 40.52 49.505 C 39.968 49.505 39.52 49.952 39.52 50.505 C 39.52 51.056 39.968 51.505 40.52 51.505 C 41.072 51.505 41.52 51.056 41.52 50.505" transform="matrix(0, 1, -1, 0, 91.025001, 9.984995)"/>
      </g>
    </g>
  </g>
</svg>