<?xml version="1.0" encoding="utf-8"?>
<svg style="shape-rendering:geometricPrecision; text-rendering:geometricPrecision; image-rendering:optimizeQuality; fill-rule:evenodd; clip-rule:evenodd" width="8.5in" height="11in" viewBox="0 0 8500 11000" xmlns="http://www.w3.org/2000/svg">
  <defs>
    <style type="text/css">
   
    .fil0 {fill:black}
   
  </style>
  </defs>
  <g id="Layer_x0020_1" transform="matrix(0, 0.370034, -0.370034, 0, 6239.303711, 3954.182617)">
    <path class="fil0" d="M4388 1800l0 767 121 0c2,0 4,0 7,0l468 0c2,0 5,0 7,0l2270 -1 0 0 421 1c2,0 4,0 6,-1l148 0 0 -766 -130 0c-3,0 -5,0 -8,0l-490 0c-2,0 -5,0 -8,0l-2209 0c-2,0 -3,0 -5,0l-475 0c-2,0 -3,0 -5,0l-118 0zm-3868 7153l0 -191 2 0 -1 -383 -1 0 0 -2299 0 0 0 -383 0 0 0 -192 766 0 0 192 0 0 0 383 0 0 0 2218c1,4 1,7 1,10l-1 454 0 0 0 191 -766 0zm-384 -574l1 0 0 -2142c0,-4 0,-8 0,-12l2 -613c0,-23 0,-46 -2,-69l0 -38c0,-211 172,-383 383,-383l766 0c212,0 383,172 383,383l0 192 229 0c1479,0 2682,-1203 2682,-2682l0 -66 -192 0c-211,0 -383,-171 -383,-383l0 -766c0,-211 172,-383 383,-383l192 0 0 -1 383 0 0 1 2070 0c16,1 32,1 48,1l652 0c16,0 31,0 47,-1l56 0c211,0 383,172 383,383l0 766c0,212 -172,383 -383,383l-191 0 0 66c0,3169 -2578,5747 -5747,5747l-229 0 0 191c0,212 -171,383 -383,383l-766 0c-211,0 -383,-171 -383,-383 0,-26 0,-53 0,-79l-1 -495zm1533 0l229 0c2957,0 5363,-2407 5363,-5364l0 -66 -383 0 0 301c0,200 -12,401 -35,598 -13,105 -109,180 -213,167 -105,-12 -180,-108 -168,-213 22,-182 33,-367 33,-552l0 -301 -1532 0 0 66c0,1690 -1375,3065 -3065,3065l-229 0 0 1532 464 0c247,0 494,-19 736,-59 104,-16 203,55 220,159 16,104 -54,203 -159,220 -262,42 -530,64 -797,64l-464 0 0 383zm1983 -637c-70,0 -138,-40 -172,-107 -46,-95 -7,-210 88,-257 402,-198 774,-454 1103,-760 78,-72 199,-68 271,10 72,78 67,199 -10,271 -357,331 -759,608 -1195,823 -27,13 -56,20 -85,20zm1603 -1317c-43,-8 -83,-29 -113,-65 -68,-81 -58,-202 23,-270 385,-325 712,-707 971,-1136 55,-90 173,-119 263,-65 91,55 120,173 65,263 -281,465 -635,879 -1052,1231 -46,38 -103,52 -157,42zm1447 -2030c0,-106 -86,-192 -192,-192 -105,0 -191,86 -191,192 0,105 86,191 191,191 106,0 192,-86 192,-191z" style="fill: rgb(255, 0, 0);"/>
  </g>
</svg>