<svg xmlns="http://www.w3.org/2000/svg" xmlns:xlink="http://www.w3.org/1999/xlink" viewBox="0 0 61 51.25" version="1.1" x="0px" y="0px"><title>Group 160</title><desc>Created with Sketch.</desc><g stroke="none" stroke-width="1" fill="none" fill-rule="evenodd"><g transform="translate(-1080.000000, -2214.000000)" fill="#000000"><g transform="translate(1080.000000, 2214.000000)"><path d="M8.0178,36.0035 L52.0178,36.0035 L52.0178,24.0035 L37.0178,24.0035 C36.4648,24.0035 36.0178,23.5565 36.0178,23.0035 L36.0178,8.0035 L24.0178,8.0035 L24.0178,23.0035 C24.0178,23.5565 23.5708,24.0035 23.0178,24.0035 L8.0178,24.0035 L8.0178,36.0035 Z M53.0178,38.0035 L7.0178,38.0035 C6.4648,38.0035 6.0178,37.5565 6.0178,37.0035 L6.0178,23.0035 C6.0178,22.4505 6.4648,22.0035 7.0178,22.0035 L22.0178,22.0035 L22.0178,7.0035 C22.0178,6.4505 22.4648,6.0035 23.0178,6.0035 L37.0178,6.0035 C37.5708,6.0035 38.0178,6.4505 38.0178,7.0035 L38.0178,22.0035 L53.0178,22.0035 C53.5708,22.0035 54.0178,22.4505 54.0178,23.0035 L54.0178,37.0035 C54.0178,37.5565 53.5708,38.0035 53.0178,38.0035 L53.0178,38.0035 Z"/><path d="M2.0178,21.0035 L2.0178,39.0035 L6.0198,39.0035 L6.0178,21.0035 L2.0178,21.0035 Z M6.0178,41.0035 L2.0178,41.0035 C0.9148,41.0035 0.0178,40.1065 0.0178,39.0035 L0.0178,21.0035 C0.0178,19.9005 0.9148,19.0035 2.0178,19.0035 L6.0178,19.0035 C7.1208,19.0035 8.0178,19.9005 8.0178,21.0035 L8.0178,39.0035 C8.0178,40.1065 7.1208,41.0035 6.0178,41.0035 L6.0178,41.0035 Z"/><path d="M54.0178,21.0035 L54.0178,39.0035 L58.0198,39.0035 L58.0178,21.0035 L54.0178,21.0035 Z M58.0178,41.0035 L54.0178,41.0035 C52.9148,41.0035 52.0178,40.1065 52.0178,39.0035 L52.0178,21.0035 C52.0178,19.9005 52.9148,19.0035 54.0178,19.0035 L58.0178,19.0035 C59.1208,19.0035 60.0178,19.9005 60.0178,21.0035 L60.0178,39.0035 C60.0178,40.1065 59.1208,41.0035 58.0178,41.0035 L58.0178,41.0035 Z"/><path d="M32.0178,12.0035 C31.4648,12.0035 31.0178,11.5565 31.0178,11.0035 L31.0178,7.0035 C31.0178,6.4505 31.4648,6.0035 32.0178,6.0035 C32.5708,6.0035 33.0178,6.4505 33.0178,7.0035 L33.0178,11.0035 C33.0178,11.5565 32.5708,12.0035 32.0178,12.0035"/><path d="M32.0178,28.0035 C31.4648,28.0035 31.0178,27.5565 31.0178,27.0035 L31.0178,19.0035 C31.0178,18.4505 31.4648,18.0035 32.0178,18.0035 C32.5708,18.0035 33.0178,18.4505 33.0178,19.0035 L33.0178,27.0035 C33.0178,27.5565 32.5708,28.0035 32.0178,28.0035"/><path d="M32.0178,16.0035 C32.5698,16.0035 33.0178,15.5555 33.0178,15.0035 C33.0178,14.4515 32.5698,14.0035 32.0178,14.0035 C31.4658,14.0035 31.0178,14.4515 31.0178,15.0035 C31.0178,15.5555 31.4658,16.0035 32.0178,16.0035"/><path d="M42.0178,28.0035 L32.0178,28.0035 C31.4648,28.0035 31.0178,27.5565 31.0178,27.0035 C31.0178,26.4505 31.4648,26.0035 32.0178,26.0035 L42.0178,26.0035 C42.5708,26.0035 43.0178,26.4505 43.0178,27.0035 C43.0178,27.5565 42.5708,28.0035 42.0178,28.0035"/><path d="M53.0178,28.0035 L48.0178,28.0035 C47.4648,28.0035 47.0178,27.5565 47.0178,27.0035 C47.0178,26.4505 47.4648,26.0035 48.0178,26.0035 L53.0178,26.0035 C53.5708,26.0035 54.0178,26.4505 54.0178,27.0035 C54.0178,27.5565 53.5708,28.0035 53.0178,28.0035"/><path d="M21.0178,2.0035 L21.0178,6.0055 L39.0178,6.0035 L39.0178,2.0035 L21.0178,2.0035 Z M39.0178,8.0035 L21.0178,8.0035 C19.9148,8.0035 19.0178,7.1065 19.0178,6.0035 L19.0178,2.0035 C19.0178,0.9005 19.9148,0.0035 21.0178,0.0035 L39.0178,0.0035 C40.1208,0.0035 41.0178,0.9005 41.0178,2.0035 L41.0178,6.0035 C41.0178,7.1065 40.1208,8.0035 39.0178,8.0035 L39.0178,8.0035 Z"/></g></g></g><text x="0" y="56" fill="#000000" font-size="5px" font-weight="bold" font-family="'Helvetica Neue', Helvetica, Arial-Unicode, Arial, Sans-serif">Created by Oliviu Stoian</text><text x="0" y="61" fill="#000000" font-size="5px" font-weight="bold" font-family="'Helvetica Neue', Helvetica, Arial-Unicode, Arial, Sans-serif">from the Noun Project</text></svg>