<?xml version="1.0" encoding="utf-8"?>
<svg style="shape-rendering:geometricPrecision; text-rendering:geometricPrecision; image-rendering:optimizeQuality; fill-rule:evenodd; clip-rule:evenodd" width="8.5in" height="11in" viewBox="0 0 8500 11000" xmlns="http://www.w3.org/2000/svg">
  <defs>
    <style type="text/css">
   
    .fil0 {fill:black}
   
  </style>
  </defs>
  <g id="Layer_x0020_1" transform="matrix(1, 0, 0, 1, -4, 0)">
    <g id="_248055680">
      <g>
        <path class="fil0" d="M4250 1250c-2349,0 -4250,1901 -4250,4250 0,2349 1901,4250 4250,4250 2349,0 4250,-1901 4250,-4250 0,-2349 -1901,-4250 -4250,-4250zm0 7946c-2038,0 -3696,-1658 -3696,-3696 0,-2038 1658,-3696 3696,-3696 2038,0 3696,1658 3696,3696 0,2038 -1658,3696 -3696,3696z" style="fill: rgb(0, 102, 255);"/>
      </g>
    </g>
    <g id="_248053920">
      <g>
        <path class="fil0" d="M5904 4498c0,0 0,0 0,0 -180,-206 -1071,-946 -1098,-1596 -8,-192 -204,-318 -381,-246 -473,193 -787,544 -909,1017 -49,193 -68,408 -55,642 -7,-13 -14,-27 -22,-41 -66,-131 -223,-187 -357,-129 -825,359 -1409,1757 -730,2875 400,658 1127,1067 1898,1067 869,0 1664,-513 2026,-1307 347,-763 208,-1615 -372,-2282zm-133 2052c-272,597 -869,983 -1521,983 -579,0 -1124,-307 -1424,-800 -474,-782 -85,-1633 265,-1943 141,222 337,408 725,457 196,25 354,-156 303,-346 -250,-933 -23,-1356 216,-1560 253,729 1006,1355 1151,1521 439,505 544,1121 285,1688z" style="fill: rgb(0, 102, 255);"/>
      </g>
    </g>
    <g id="_248051648"/>
    <g id="_248051232"/>
    <g id="_248052896"/>
    <g id="_248051168"/>
    <g id="_248052800"/>
    <g id="_248049216"/>
    <g id="_248050592"/>
    <g id="_248049280"/>
    <g id="_248050176"/>
    <g id="_248051808"/>
    <g id="_248050944"/>
    <g id="_248051392"/>
    <g id="_248052128"/>
    <g id="_248052224"/>
    <g id="_248051456"/>
  </g>
</svg>