<?xml version="1.0" encoding="utf-8"?>
<svg id="Capa_1" style="enable-background:new 0 0 401.998 401.998;" x="0px" y="0px" width="401.998px" height="401.998px" viewBox="0 325 77 77" xmlns="http://www.w3.org/2000/svg">
  <g transform="matrix(0.189332, 0, 0, 0.189332, 0, 325.887756)">
    <path d="M377.87,24.126C361.786,8.042,342.417,0,319.769,0H82.227C59.579,0,40.211,8.042,24.125,24.126&#10;&#9;&#9;C8.044,40.212,0.002,59.576,0.002,82.228v237.543c0,22.647,8.042,42.014,24.123,58.101c16.086,16.085,35.454,24.127,58.102,24.127&#10;&#9;&#9;h237.542c22.648,0,42.011-8.042,58.102-24.127c16.085-16.087,24.126-35.453,24.126-58.101V82.228&#10;&#9;&#9;C401.993,59.58,393.951,40.212,377.87,24.126z M365.448,319.771c0,12.559-4.47,23.314-13.415,32.264&#10;&#9;&#9;c-8.945,8.945-19.698,13.411-32.265,13.411H82.227c-12.563,0-23.317-4.466-32.264-13.411c-8.945-8.949-13.418-19.705-13.418-32.264&#10;&#9;&#9;V82.228c0-12.562,4.473-23.316,13.418-32.264c8.947-8.946,19.701-13.418,32.264-13.418h237.542&#10;&#9;&#9;c12.566,0,23.319,4.473,32.265,13.418c8.945,8.947,13.415,19.701,13.415,32.264V319.771L365.448,319.771z" style="fill: rgb(255, 0, 0);"/>
  </g>
  <g transform="matrix(0.189332, 0, 0, 0.189332, 0, 325.887756)"/>
  <g transform="matrix(0.189332, 0, 0, 0.189332, 0, 325.887756)"/>
  <g transform="matrix(0.189332, 0, 0, 0.189332, 0, 325.887756)"/>
  <g transform="matrix(0.189332, 0, 0, 0.189332, 0, 325.887756)"/>
  <g transform="matrix(0.189332, 0, 0, 0.189332, 0, 325.887756)"/>
  <g transform="matrix(0.189332, 0, 0, 0.189332, 0, 325.887756)"/>
  <g transform="matrix(0.189332, 0, 0, 0.189332, 0, 325.887756)"/>
  <g transform="matrix(0.189332, 0, 0, 0.189332, 0, 325.887756)"/>
  <g transform="matrix(0.189332, 0, 0, 0.189332, 0, 325.887756)"/>
  <g transform="matrix(0.189332, 0, 0, 0.189332, 0, 325.887756)"/>
  <g transform="matrix(0.189332, 0, 0, 0.189332, 0, 325.887756)"/>
  <g transform="matrix(0.189332, 0, 0, 0.189332, 0, 325.887756)"/>
  <g transform="matrix(0.189332, 0, 0, 0.189332, 0, 325.887756)"/>
  <g transform="matrix(0.189332, 0, 0, 0.189332, 0, 325.887756)"/>
  <g transform="matrix(0.189332, 0, 0, 0.189332, 0, 325.887756)"/>
  <g transform="matrix(0.189332, 0, 0, 0.189332, 37.071674, 362.944092)">
    <g>
      <path fill-rule="evenodd" d="M 73.112 -21.832 C 43.562 -50.862 42.636 -94.641 66.405 -138.583 C 66.462 -138.718 13.387 -125.034 7.665 -46.992 C 5.755 -21.014 10.662 25.271 -5.395 31.512 C -34.096 42.69 -60.594 11.452 -51.107 -53.534 C -51.023 -53.943 -84.499 -12.401 -90.277 51.139 C -95.184 105.112 -46.444 149.273 7.665 149.273 C 61.746 149.273 105.578 105.357 105.578 51.139 C 105.578 22.165 92.246 -3.051 73.112 -21.832 Z M 7.637 136.188 C -39.249 136.188 -77.248 92.928 -77.248 58.663 C -77.248 35.466 -64.545 2.674 -64.192 5.345 C -60.674 32.522 -28.536 60.162 -0.05 47.08 C 42.965 27.342 12.953 -42.059 33.15 -82.783 C 33.397 -83.192 30.589 -49.663 49.179 -24.913 C 60.083 -10.383 93.665 20.774 92.519 51.139 C 90.72 98.08 54.522 136.188 7.637 136.188 Z" style="fill: rgb(255, 0, 0);"/>
    </g>
  </g>
</svg>