<?xml version="1.0" encoding="utf-8"?><svg xmlns="http://www.w3.org/2000/svg" xmlns:xlink="http://www.w3.org/1999/xlink" version="1.1" class="page" pageAlignment="center-horizontally-vertically" x="0px" y="0px" width="842px" height="595px" viewBox="0 0 842 595" enable-background="new 0 0 842 595" xml:space="preserve"><defs/><style type="text/css"/><style type="text/css"/><g type="LAYER" name="workspace" id="workspace" locked="true"/><g type="LAYER" name="Layer 01" id="Layer 01"><path transform="matrix(1 0 0 1 175.44184005557003 36.57210401891204)" width="486.6893599685592" height="497.9840882465826" stroke-width="49" stroke-miterlimit="3" stroke="#000000" fill="rgb(255, 0, 0)" d="M0,248.99204412329127 C0,111.47752283306815 108.94911206809775,-4.263256414560601e-14 243.34467998427965,-4.263256414560601e-14 C377.74024790046155,-4.263256414560601e-14 486.6893599685592,111.47752283306815 486.6893599685592,248.99204412329127 C486.6893599685592,386.5065654135144 377.74024790046155,497.9840882465826 243.34467998427965,497.9840882465826 C108.94911206809775,497.9840882465826 0,386.5065654135144 0,248.99204412329127 Z "/><path transform="matrix(1 0 0 1 116.46690307328572 570.4469373643458)" width="314.40994051066184" height="345.4484215764584" stroke-width="46.87568299297999" stroke-miterlimit="3" stroke="#000000" fill="rgb(255, 0, 0)" d="M5.684341886080802e-14,0 L314.4099405106619,-345.4484215764584 "/><path transform="matrix(1 0 0 1 425.18935026947923 404.9242677030255)" width="314.4099405106623" height="345.44842157645826" stroke-width="46.87568299297999" stroke-miterlimit="3" stroke="#000000" fill="rgb(255, 0, 0)" d="M0,0 L314.4099405106623,-345.44842157645826 "/><path transform="matrix(1 0 0 1 430.87684358394864 224.99851578788895)" width="5.687493314469293" height="179.9257519151368" stroke-width="46.87568299297999" stroke-miterlimit="3" stroke="#000000" fill="rgb(255, 0, 0)" d="M-3.410605131648481e-13,0 L-5.687493314469634,179.9257519151368 "/><path transform="matrix(1 0 0 1 129.38785953262845 460.5315304991109)" width="12.920956459342335" height="109.91540686523638" stroke-width="46.87568299297999" stroke-miterlimit="3" stroke="#000000" fill="rgb(255, 0, 0)" d="M-5.684341886080802e-14,0 L-12.920956459342392,109.91540686523638 "/><path transform="matrix(-0.32536353110328514 -0.9455890083054063 0.9455890083054063 -0.32536353110328514 117.41585290999558 570.9491841452838)" width="13.403090607537933" height="105.63572159562682" stroke-width="46.96633750298608" stroke-miterlimit="3" stroke="#000000" fill="rgb(255, 0, 0)" d="M-4.547473508864641e-13,-5.684341886080802e-14 L-13.403090607538388,105.63572159562676 "/></g></svg>