<?xml version="1.0" encoding="iso-8859-1"?>
<!-- Generator: Adobe Illustrator 19.0.0, SVG Export Plug-In . SVG Version: 6.00 Build 0)  -->
<svg version="1.1" id="Layer_1" xmlns="http://www.w3.org/2000/svg" xmlns:xlink="http://www.w3.org/1999/xlink" x="0px" y="0px"
	 viewBox="0 0 503.607 503.607" style="enable-background:new 0 0 503.607 503.607;" xml:space="preserve">
<g transform="translate(1 1)">
	<path style="fill:#FFDD09;" d="M57.754,309.557h386.098V192.049H57.754V309.557z"/>
	<path style="fill:#FCC309;" d="M49.361,334.738H15.787c-5.036,0-8.393-3.357-8.393-8.393V175.262c0-5.036,3.357-8.393,8.393-8.393
		h33.574c5.036,0,8.393,3.357,8.393,8.393v151.082C57.754,331.38,54.397,334.738,49.361,334.738"/>
	<path style="fill:#FFFFFF;" d="M19.144,166.869h21.823c-5.875,0-8.393,4.197-8.393,8.393v151.082c0,5.036,2.518,8.393,8.393,8.393
		H19.144c-6.715,0-11.751-3.357-11.751-8.393V175.262C7.393,171.066,12.43,166.869,19.144,166.869"/>
	<path style="fill:#FCC309;" d="M452.246,334.738h33.574c5.036,0,8.393-3.357,8.393-8.393V175.262c0-5.036-3.357-8.393-8.393-8.393
		h-33.574c-5.036,0-8.393,3.357-8.393,8.393v151.082C443.852,331.38,448.049,334.738,452.246,334.738"/>
	<path style="fill:#FD9808;" d="M483.302,166.869h-22.662c5.875,0,8.393,3.357,8.393,8.393v151.082c0,5.036-2.518,8.393-8.393,8.393
		h22.662c5.875,0,10.911-3.357,10.911-8.393V175.262C494.213,171.066,489.177,166.869,483.302,166.869"/>
	<path d="M443.852,317.951H57.754c-5.036,0-8.393-3.357-8.393-8.393V192.049c0-5.036,3.357-8.393,8.393-8.393h386.098
		c5.036,0,8.393,3.357,8.393,8.393v117.508C452.246,314.593,448.888,317.951,443.852,317.951z M66.148,301.164h369.311V200.443
		H66.148V301.164z"/>
	<path d="M49.361,343.131H15.787C6.554,343.131-1,335.577-1,326.344V175.262c0-9.233,7.554-16.787,16.787-16.787h33.574
		c9.233,0,16.787,7.554,16.787,16.787v151.082C66.148,335.577,58.593,343.131,49.361,343.131z M49.361,326.344v8.393V326.344
		L49.361,326.344z M15.787,175.262v151.082h33.574V175.262H15.787z"/>
	<path d="M485.82,343.131h-33.574c-9.233,0-16.787-7.554-16.787-16.787V175.262c0-9.233,7.554-16.787,16.787-16.787h33.574
		c9.233,0,16.787,7.554,16.787,16.787v151.082C502.607,335.577,495.052,343.131,485.82,343.131z M485.82,326.344v8.393V326.344
		L485.82,326.344z M452.246,175.262v151.082h33.574V175.262H452.246z"/>
	<path d="M91.328,234.016H57.754c-4.197,0-8.393-3.357-8.393-8.393c0-5.036,3.357-8.393,8.393-8.393h33.574
		c5.036,0,8.393,3.357,8.393,8.393C99.721,230.659,96.364,234.016,91.328,234.016z"/>
	<path d="M225.623,234.016h-67.148c-5.036,0-8.393-3.357-8.393-8.393c0-5.036,3.357-8.393,8.393-8.393h67.148
		c5.036,0,8.393,3.357,8.393,8.393C234.016,230.659,230.659,234.016,225.623,234.016z"/>
	<path d="M133.295,225.623c0-5.036-3.357-8.393-8.393-8.393c-5.036,0-8.393,3.357-8.393,8.393c0,5.036,3.357,8.393,8.393,8.393
		C129.938,234.016,133.295,230.659,133.295,225.623"/>
	<path d="M351.525,234.016H267.59c-5.036,0-8.393-3.357-8.393-8.393c0-5.036,3.357-8.393,8.393-8.393h83.934
		c5.036,0,8.393,3.357,8.393,8.393C359.918,230.659,356.561,234.016,351.525,234.016z"/>
	<path d="M443.852,234.016h-41.967c-5.036,0-8.393-3.357-8.393-8.393c0-5.036,3.357-8.393,8.393-8.393h41.967
		c5.036,0,8.393,3.357,8.393,8.393C452.246,230.659,448.888,234.016,443.852,234.016z"/>
</g>
<g>
</g>
<g>
</g>
<g>
</g>
<g>
</g>
<g>
</g>
<g>
</g>
<g>
</g>
<g>
</g>
<g>
</g>
<g>
</g>
<g>
</g>
<g>
</g>
<g>
</g>
<g>
</g>
<g>
</g>
</svg>
