<?xml version="1.0" encoding="utf-8"?>
<svg class="page" x="0px" y="0px" width="740px" height="416px" viewBox="0 0 740 416" xmlns="http://www.w3.org/2000/svg">
  <g type="LAYER" name="workspace" id="workspace" locked="true"/>
  <g transform="matrix(1 0 0 1 2.3021584638627246e-12 2.984279490192421e-13)">
    <g transform="matrix(1 0 0 1 124.64981949458851 -45.805054151624894)">
      <path width="511.999" height="371.109" stroke-miterlimit="3" stroke="none" d="M490.48,215.893 L469.456,215.893 C457.59000000000003,215.893 447.937,225.547 447.937,237.413 L447.937,241.644 L290.666,241.644 L290.666,214.506 C313.178,211.656 330.646,192.4 330.646,169.128 L330.646,144.90499999999997 C330.646,103.84799999999997 297.244,70.44599999999997 256.187,70.44599999999997 C215.13,70.44599999999997 181.728,103.84799999999997 181.728,144.90499999999997 L181.728,169.128 C181.728,192.40099999999998 199.197,211.65699999999998 221.708,214.50599999999997 L221.708,241.64399999999998 L64.437,241.64399999999998 L64.437,237.41299999999998 C64.437,225.546 54.783,215.89299999999997 42.917,215.89299999999997 L21.52,215.89299999999997 C9.654,215.89299999999997 0,225.54699999999997 0,237.41299999999998 L0,420.03499999999997 C0,431.902 9.654,441.55499999999995 21.52,441.55499999999995 L42.917,441.55499999999995 C54.783,441.55499999999995 64.437,431.90099999999995 64.437,420.03499999999997 L64.437,415.804 L447.937,415.804 L447.937,420.03499999999997 C447.937,431.902 457.591,441.55499999999995 469.456,441.55499999999995 L490.47900000000004,441.55499999999995 C502.345,441.55499999999995 511.999,431.90099999999995 511.999,420.03499999999997 L511.999,237.412 C512,225.546 502.346,215.893 490.48,215.893 Z M44.039,420.034 L44.039,420.034 C44.038000000000004,420.652 43.535000000000004,421.156 42.916000000000004,421.156 L21.52,421.156 C20.902,421.156 20.398,420.653 20.398,420.034 L20.398,237.412 C20.398,236.794 20.901,236.29 21.52,236.29 L42.917,236.29 C43.535000000000004,236.29 44.039,236.79299999999998 44.039,237.412 L44.039,420.034 Z M202.126,169.127 L202.126,157.476 L207.30700000000002,157.476 C212.94000000000003,157.476 217.50600000000003,152.909 217.50600000000003,147.277 C217.50600000000003,141.64499999999998 212.94000000000003,137.07799999999997 207.30700000000002,137.07799999999997 L202.7,137.07799999999997 C206.504,110.96499999999997 229.036,90.84299999999998 256.188,90.84299999999998 C283.34,90.84299999999998 305.871,110.96499999999997 309.676,137.07799999999997 L304.69599999999997,137.07799999999997 C299.063,137.07799999999997 294.49699999999996,141.64499999999998 294.49699999999996,147.277 C294.49699999999996,152.909 299.06299999999993,157.476 304.69599999999997,157.476 L310.251,157.476 L310.251,169.127 C310.251,183.109 298.876,194.484 284.894,194.484 L227.485,194.484 C213.501,194.485 202.126,183.109 202.126,169.127 Z M270.268,214.883 L270.268,241.644 L242.10599999999997,241.644 L242.10599999999997,214.883 L270.268,214.883 Z M447.937,395.405 L64.43700000000001,395.405 L64.43700000000001,262.042 L447.937,262.042 L447.937,395.405 Z M491.602,420.034 C491.602,420.652 491.099,421.156 490.47999999999996,421.156 L469.45599999999996,421.156 C468.83799999999997,421.156 468.335,420.653 468.335,420.034 L468.335,237.412 C468.335,236.794 468.83799999999997,236.29 469.45599999999996,236.29 L490.47999999999996,236.29 C491.09799999999996,236.29 491.602,236.79299999999998 491.602,237.412 L491.602,420.034 Z " style="fill: rgb(202, 0, 0);"/>
    </g>
  </g>
  <g>
    <g transform="matrix(1 0 0 1 124.64981949458775 -45.8050541516237)">
      <path width="24.130000000000024" height="20.398000000000025" stroke-miterlimit="3" stroke="none" d="M206.981,365.679 L203.249,365.679 C197.61599999999999,365.679 193.04999999999998,370.246 193.04999999999998,375.878 C193.04999999999998,381.51 197.61599999999999,386.077 203.249,386.077 L206.981,386.077 C212.614,386.077 217.18,381.51 217.18,375.878 C217.18,370.246 212.614,365.679 206.981,365.679 Z " style="fill: rgb(202, 0, 0);"/>
    </g>
  </g>
  <g>
    <g transform="matrix(1 0 0 1 124.64981949458775 -45.8050541516237)">
      <path width="103.387" height="20.398000000000025" stroke-miterlimit="3" stroke="none" d="M169.052,365.679 L86.062,365.679 C80.429,365.679 75.863,370.246 75.863,375.878 C75.863,381.51 80.429,386.077 86.062,386.077 L169.051,386.077 C174.684,386.077 179.25,381.51 179.25,375.878 C179.25,370.246 174.684,365.679 169.052,365.679 Z " style="fill: rgb(202, 0, 0);"/>
    </g>
  </g>
  <g>
    <g transform="matrix(1 0 0 1 124.64981949458775 -45.8050541516237)">
      <path width="20.398000000000025" height="53.203" stroke-miterlimit="3" stroke="none" d="M256,100.173 C250.367,100.173 245.801,104.74000000000001 245.801,110.372 L245.801,143.177 C245.801,148.809 250.367,153.376 256,153.376 C261.633,153.376 266.199,148.809 266.199,143.177 L266.199,110.37199999999999 C266.199,104.74 261.633,100.173 256,100.173 Z " style="fill: rgb(202, 0, 0);"/>
    </g>
  </g>
  <g/>
  <g/>
  <g/>
  <g/>
  <g/>
  <g/>
  <g/>
  <g/>
  <g/>
  <g/>
  <g/>
  <g/>
  <g/>
  <g/>
  <g/>
</svg>