<?xml version="1.0" encoding="utf-8"?><svg xmlns="http://www.w3.org/2000/svg" xmlns:xlink="http://www.w3.org/1999/xlink" version="1.1" class="page" pageAlignment="none" x="0px" y="0px" width="740px" height="416px" viewBox="0 0 740 416" enable-background="new 0 0 740 416" xml:space="preserve"><defs/><style type="text/css"/><style type="text/css"/><g type="LAYER" name="workspace" id="workspace" locked="true"/><g transform="matrix(0.999999960113964 -0.0002824394989063833 0.0002824394989063833 0.999999960113964 -52.20413429034414 2.1945956146735597)"><g transform="matrix(0.999999960113964 -0.0002824394989063833 0.0002824394989063833 0.999999960113964 201.68528345521543 -1.4352629833102526)"><path transform="matrix(1 0 0 1 9.094947017729282e-13 -8.526512829121202e-14)" width="414.8544121939925" height="414.89942728913377" stroke-width="0.8103015920098965" stroke-miterlimit="3" stroke="none" fill="#000" d="M407.99428588573994,236.04767655831807 L375.37797893742083,236.04998382543266 L375.37652102479603,179.13165754558685 L407.99282797311446,179.1293502784722 C411.78566676739797,179.12908197426987 414.8589137067838,176.05443219482095 414.8588165679581,172.26203801786102 C414.8587194291332,168.46964384090086 411.7853149920112,165.3954288736033 407.9924761977278,165.39569717780563 L375.2052038604767,165.3980165389571 C374.5172124509056,162.33173623468116 371.78413827557176,160.0386655671478 368.50986748563514,160.0388971880156 L351.4514109301879,160.04010389777272 C350.83066908777107,156.88711238806383 348.05302825365584,154.50733842494174 344.7171775132025,154.50757440195554 L301.77650570336687,154.5106120113361 C297.98366690908335,154.5108803155385 294.9104199696976,157.58553009498735 294.91051710852275,161.3779242719474 L294.910620162854,165.40126553019667 L249.78791142223315,165.40445749617146 L249.78674698094358,119.94353747018017 L253.47587217435773,119.94327650264465 C257.2687109686408,119.94300819844226 260.34195790802687,116.86835841899337 260.34186076920173,113.07596424203338 L260.3407607757865,70.1311518911405 C260.34067843610273,66.91653058772165 258.12940312386877,64.22554575525659 255.1468076784406,63.477812334625995 L255.1463685818917,46.33505617787564 C255.1462847270086,43.061280008021214 252.85317178075582,40.32654257029549 249.78712085383972,39.63959060109654 L249.7862809558559,6.849156761205393 C249.78618381703075,3.0567625842451775 246.7127793799085,-0.017452383052457776 242.91994058562523,-0.017184078850050355 C239.12710179134194,-0.016915774647657145 236.05385485195586,3.057734004801162 236.05395199078134,6.850128181761306 L236.05478750921543,39.469580147434854 L179.14194903229577,39.473606143413775 L179.14111351386214,6.854154177740071 C179.14101637503654,3.0617600007799695 176.06761193791408,-0.012454966517665866 172.27477314363125,-0.012186662315301078 C168.48193434934808,-0.011918358112907868 165.40868740996223,3.062731421335954 165.40878454878725,6.855125598296013 L165.40962444677098,39.64555943818729 C162.34360874305764,40.33375552845456 160.05063585936728,43.06719670314901 160.05071973500696,46.34178321363959 L160.051156735184,63.4026949661435 C156.89763097873083,64.02444931456309 154.51877141091018,66.8024652999204 154.51885684326203,70.1378273581188 L154.51995683667724,113.0826397090115 C154.52005397550215,116.87503388597177 157.59345841262393,119.94924885326928 161.38629720690722,119.94898054906683 L165.40925055311948,119.94869596663467 L165.41041499440905,165.40961599262602 L119.95549862600456,165.41283145886194 L119.9553955716741,161.38949020061267 C119.95529843284874,157.59709602365263 116.88189399572684,154.522881056355 113.08905520144322,154.52314936055734 L70.14676286659449,154.52618708457317 C66.93245150215921,154.52641446393045 64.24243664393168,156.73883469528909 63.49464071207433,159.72013079975727 L46.352727118428106,159.72134341323857 C43.07926659099701,159.7215749767886 40.34468937051213,162.0150324242316 39.65766530606061,165.08140999666216 L6.870392968809256,165.0837293578137 C3.077554174525744,165.0839976620162 0.004307235140117882,168.15864744146495 0.004404373965599007,171.95104161842505 C0.004501512790511697,175.74343579538515 3.0779059499128607,178.81765076268272 6.870744744196259,178.8173824584801 L39.48705169251548,178.8150751913658 L39.488509605140166,235.7334014712115 L6.872202656821173,235.73570873832608 C3.079363862537889,235.73597704252853 0.006116923151807896,238.8106268219774 0.006214061977516394,242.60302099893732 C0.006311200802656458,246.3954151758976 3.0797156379250055,249.46963014319505 6.872554432208176,249.4693618389927 L39.65982676945953,249.467042477841 C40.34781817903081,252.5333227821174 43.080892354364096,254.82639344965048 46.35516314430163,254.82616182878297 L63.414429962254985,254.82495506170784 C64.03517180467202,257.9779465714166 66.81281263878725,260.3577205345389 70.14866337924116,260.3574845575251 L113.08933518907622,260.3544469481447 C116.88217398335917,260.3541786439421 119.95542092274513,257.2795288644934 119.95532378391988,253.48713468753328 L119.95522928112678,249.7976537713584 L165.41014564953105,249.79443830512218 L165.4113015392834,294.92149798903915 L161.3883481930718,294.92178257147117 C157.59550939878818,294.9220508756738 154.52226245940233,297.99670065512254 154.52235959822747,301.7890948320825 L154.52345959164302,344.7339071829752 C154.5235419105701,347.94771814575853 156.7348172228045,350.6387029782233 159.716602405726,351.38643645617145 L159.71704152303107,368.5300029535579 C159.71712537791484,371.8037791234125 162.01023832416683,374.5385165611382 165.07628925108384,375.2254685303372 L165.07712914906676,408.01590237022845 C165.07722628789168,411.80829654718815 168.1506307250138,414.8825115144861 171.94346951929697,414.8822432102837 C175.73630831358105,414.8819749060812 178.80955525296724,411.80732512663224 178.80945811414153,408.01493094967236 L178.80862259570733,375.3954789839989 L235.721461072627,375.39145298802003 L235.7222965910604,408.01090495369357 C235.72239372988577,411.80329913065367 238.7957981670079,414.87751409795163 242.58863696129117,414.877245793749 C246.38147575557423,414.87697748954656 249.4547226949603,411.80232771009787 249.45462555613494,408.00993353313766 L249.45378565815122,375.21949969324663 C252.52061166588408,374.5329242269334 254.81277424555515,371.79786242828453 254.81269036991534,368.52327591779397 L254.8122533697392,351.4623641652903 C257.9657791261908,350.8406098168706 260.344638694012,348.0625938315131 260.3445532616612,344.7272317733151 L260.3434532682454,301.7824194224225 C260.3433561294203,297.9900252454622 257.2699516922978,294.91581027816454 253.47711289801498,294.9160785823669 L249.7879877046007,294.9163395499023 L249.78683181484848,249.7892798659853 L294.9095405554691,249.7860879000105 L294.9096350582622,253.4755688161856 C294.90973219708735,257.2679629931456 297.98313663420913,260.34217796044345 301.77597542849264,260.3419096562411 L344.7166472383277,260.3388720468604 C347.93095860276276,260.33864466750305 350.6209734609905,258.1262244361448 351.36876939284775,255.14492833167657 L368.509872723987,255.143715775513 C371.7833332514184,255.1434842119629 374.5179104719033,252.85002676452 375.2049345363548,249.78364919208929 L407.99220687360605,249.7813298309377 C411.7850456678892,249.78106152673547 414.8582926072752,246.7064117472865 414.85819546844994,242.9140175703265 C414.8580983296238,239.12162339336635 411.78712468002277,236.04740825411574 407.99428588573994,236.04767655831807 Z M63.282815702280686,241.0929319277825 L53.22097589296459,241.09364369911043 L53.21924337635221,173.45451080362727 L63.280272923161874,173.45379908961712 L63.282005439774025,241.09293198510028 Z M106.22281897266407,246.62290023902796 L77.01528639041021,246.62496637053505 L77.01327914527462,168.26016481559816 L106.22162199003526,168.2580986267733 L106.22362923517142,246.6229001817104 Z M173.7824143252676,53.20763840073472 L241.4142155045098,53.20285414876487 L241.4144732337395,63.26485382725075 L173.7826720544973,63.26963807922057 L173.7824143252676,53.20763840073472 Z M168.2513617167857,77.00449282853229 L246.6086076984052,76.99894986202987 L246.60935591643386,106.21010911225592 L168.25210993481414,106.21565207875837 L168.2513617167856,77.00449282853229 Z M241.08342658793083,361.6582308993822 L173.45081514618198,361.6630152086695 L173.45055741695296,351.60101553018376 L241.08316885870227,351.5962312208965 L241.08342658793083,361.6582308993822 Z M246.6152894381636,337.86056607363076 L168.2580434565441,337.8661090401329 L168.257295238516,308.65494978990705 L246.61454122013527,308.6494068234047 L246.6152894381636,337.86056607363076 Z M294.91242983010886,236.05243457007305 L242.92274634444482,236.05611230364354 C239.12990755016153,236.05638060784588 236.05666061077602,239.1310303872947 236.05675774960116,242.9234245642549 L236.05808942326564,294.91325909532486 L179.14525094634678,294.9172850913034 L179.14391927268184,242.92745056023375 C179.14382213385682,239.13505638327348 176.0704176967347,236.0608414159758 172.27757890245164,236.0611097201783 L119.96054936404369,236.06481061010373 L119.959091451419,179.14648433025786 L172.27612098982593,179.14278344033266 C176.06895978410932,179.1425151361302 179.14220672349506,176.06786535668124 179.1421095846698,172.27547117972102 L179.1407692556869,119.94772460339648 L236.05360773260588,119.94369860741772 L236.05494806158947,172.27144518374234 C236.05504520041495,176.0638393607025 239.1284496375365,179.1380543280003 242.92128843182013,179.1377860237978 L294.9101616549774,179.13410834754507 L294.91161956760254,236.0524346273907 Z M337.8525617886803,246.60651482515453 L308.6442189439191,246.60858101397952 L308.6422116987835,168.24377945904246 L337.8505545435447,168.24171327021787 L337.8525617886803,246.60651482515453 Z M361.6465975160901,241.41054815585358 L351.586378231788,241.4112598125459 L351.5846457151756,173.77212691706262 L361.64486499947907,173.7714152603703 L361.6465975160901,241.41054815585358 Z "/></g></g><g/><g/><g/><g/><g/><g/><g/><g/><g/><g/><g/><g/><g/><g/><g/></svg>