<?xml version="1.0" encoding="utf-8"?><svg xmlns="http://www.w3.org/2000/svg" xmlns:xlink="http://www.w3.org/1999/xlink" version="1.1" class="page" pageAlignment="none" x="0px" y="0px" width="740px" height="416px" viewBox="0 0 740 416" enable-background="new 0 0 740 416" xml:space="preserve"><defs/><style type="text/css"/><style type="text/css"/><g type="LAYER" name="workspace" id="workspace" locked="true"/><g transform="matrix(1 0 0 1 130.90613718411686 -57.570397111913145)"><g><g><path width="503.6069999999999" height="184.65600000000003" stroke-miterlimit="3" stroke="none" fill="#000" d="M485.82,158.475 L452.246,158.475 C443.013,158.475 435.459,166.029 435.459,175.262 L435.459,183.655 L66.148,183.655 L66.148,175.262 C66.148,166.029 58.593999999999994,158.475 49.361,158.475 L15.787,158.475 C6.554,158.475 -1,166.03 -1,175.262 L-1,326.344 C-1,335.577 6.554,343.131 15.786999999999999,343.131 L49.361,343.131 C58.593999999999994,343.131 66.148,335.577 66.148,326.344 L66.148,317.951 L435.45899999999995,317.951 L435.45899999999995,326.34400000000005 C435.45899999999995,335.57700000000006 443.0129999999999,343.13100000000003 452.2459999999999,343.13100000000003 L485.81999999999994,343.13100000000003 C495.05299999999994,343.13100000000003 502.6069999999999,335.57700000000006 502.6069999999999,326.34400000000005 L502.6069999999999,175.262 C502.607,166.03 495.052,158.475 485.82,158.475 Z M49.361,326.344 L15.787,326.344 L15.787,175.262 L49.361,175.262 L49.361,192.049 L49.361,309.557 L49.361,326.344 Z M66.148,301.164 L66.148,234.016 L91.328,234.016 C96.364,234.016 99.721,230.659 99.721,225.623 C99.721,220.587 96.364,217.23 91.328,217.23 L66.148,217.23 L66.148,200.44299999999998 L435.45899999999995,200.44299999999998 L435.45899999999995,217.23 L401.88499999999993,217.23 C396.84899999999993,217.23 393.49199999999996,220.587 393.49199999999996,225.623 C393.49199999999996,230.659 396.849,234.016 401.885,234.016 L435.459,234.016 L435.459,301.164 L66.148,301.164 Z M485.82,326.344 L452.246,326.344 L452.246,309.557 L452.246,192.049 L452.246,175.262 L485.82,175.262 L485.82,326.344 Z "/><path width="83.934" height="16.786" stroke-miterlimit="3" stroke="none" fill="#000" d="M225.623,217.229 L158.475,217.229 C153.439,217.229 150.082,220.586 150.082,225.622 C150.082,230.65800000000002 153.439,234.01500000000001 158.475,234.01500000000001 L225.623,234.01500000000001 C230.659,234.01500000000001 234.016,230.65800000000002 234.016,225.622 C234.016,220.587 230.659,217.229 225.623,217.229 Z "/><path width="16.786000000000016" height="16.786" stroke-miterlimit="3" stroke="none" fill="#000" d="M124.902,217.229 C119.866,217.229 116.509,220.586 116.509,225.622 C116.509,230.65800000000002 119.866,234.01500000000001 124.902,234.01500000000001 C129.938,234.01500000000001 133.29500000000002,230.65800000000002 133.29500000000002,225.622 C133.295,220.587 129.938,217.229 124.902,217.229 Z "/><path width="100.72000000000003" height="16.786" stroke-miterlimit="3" stroke="none" fill="#000" d="M351.525,217.229 L267.59,217.229 C262.554,217.229 259.197,220.586 259.197,225.622 C259.197,230.65800000000002 262.55400000000003,234.01500000000001 267.59000000000003,234.01500000000001 L351.524,234.01500000000001 C356.56,234.01500000000001 359.91700000000003,230.65800000000002 359.91700000000003,225.622 C359.918,220.587 356.561,217.229 351.525,217.229 Z "/></g></g></g><g/><g/><g/><g/><g/><g/><g/><g/><g/><g/><g/><g/><g/><g/><g/></svg>