<?xml version="1.0" encoding="utf-8"?><svg xmlns="http://www.w3.org/2000/svg" xmlns:xlink="http://www.w3.org/1999/xlink" version="1.1" class="page" pageAlignment="none" x="0px" y="0px" width="740px" height="416px" viewBox="0 0 740 416" enable-background="new 0 0 740 416" xml:space="preserve"><defs/><style type="text/css"/><style type="text/css"/><g type="LAYER" name="workspace" id="workspace" locked="true"/><g><g transform="matrix(1 0 0 1 112.63537906137594 -51.06137184115463)"><path width="511.99999999999994" height="306.21299999999997" stroke-miterlimit="3" stroke="none" fill="#000" d="M486.038,102.894 L456.76300000000003,102.894 C442.44700000000006,102.894 430.80100000000004,114.54 430.80100000000004,128.856 L430.80100000000004,138.75 L81.719,138.75 L81.719,128.856 C81.719,114.53999999999999 70.07199999999999,102.89399999999999 55.75599999999999,102.89399999999999 L25.962,102.89399999999999 C11.646,102.894 0,114.54 0,128.856 L0,383.145 C0,397.46099999999996 11.646,409.10699999999997 25.962,409.10699999999997 L55.756,409.10699999999997 C70.072,409.10699999999997 81.719,397.46099999999996 81.719,383.145 L81.719,373.251 L430.801,373.251 L430.801,383.145 C430.801,397.46099999999996 442.447,409.10699999999997 456.763,409.10699999999997 L486.03799999999995,409.10699999999997 C500.3539999999999,409.10699999999997 511.99999999999994,397.46099999999996 511.99999999999994,383.145 L511.99999999999994,128.856 C512,114.54 500.354,102.894 486.038,102.894 Z M61.321,383.144 C61.321,386.212 58.824999999999996,388.708 55.756,388.708 L25.962,388.708 C22.894,388.708 20.398,386.21200000000005 20.398,383.144 L20.398,128.856 C20.398,125.788 22.894,123.292 25.962,123.292 L55.756,123.292 C58.825,123.292 61.321,125.788 61.321,128.856 L61.321,383.144 Z M430.801,352.852 L81.719,352.852 L81.719,159.148 L430.801,159.148 L430.801,352.852 Z M491.602,383.144 C491.602,386.212 489.106,388.708 486.03799999999995,388.708 L456.763,388.708 C453.695,388.708 451.19899999999996,386.21200000000005 451.19899999999996,383.144 L451.19899999999996,128.856 C451.19899999999996,125.788 453.69499999999994,123.292 456.763,123.292 L486.03799999999995,123.292 C489.10599999999994,123.292 491.602,125.788 491.602,128.856 L491.602,383.144 Z "/></g></g><g><g transform="matrix(1 0 0 1 112.63537906137594 -51.06137184115463)"><path width="25.59400000000005" height="20.398000000000025" stroke-miterlimit="3" stroke="none" fill="#000" d="M277.306,319.593 L272.10999999999996,319.593 C266.47799999999995,319.593 261.91099999999994,324.16 261.91099999999994,329.79200000000003 C261.91099999999994,335.42400000000004 266.47799999999995,339.99100000000004 272.10999999999996,339.99100000000004 L277.306,339.99100000000004 C282.938,339.99100000000004 287.505,335.42400000000004 287.505,329.79200000000003 C287.505,324.16 282.938,319.593 277.306,319.593 Z "/></g></g><g><g transform="matrix(1 0 0 1 112.63537906137594 -51.06137184115463)"><path width="144.079" height="20.398000000000025" stroke-miterlimit="3" stroke="none" fill="#000" d="M232.615,319.593 L108.935,319.593 C103.303,319.593 98.736,324.16 98.736,329.79200000000003 C98.736,335.42400000000004 103.303,339.99100000000004 108.935,339.99100000000004 L232.61599999999999,339.99100000000004 C238.248,339.99100000000004 242.815,335.42400000000004 242.815,329.79200000000003 C242.815,324.16 238.248,319.593 232.615,319.593 Z "/></g></g><g/><g/><g/><g/><g/><g/><g/><g/><g/><g/><g/><g/><g/><g/><g/></svg>