<?xml version="1.0" encoding="utf-8"?>
<svg id="Capa_1" style="enable-background:new 0 0 53 53;" x="0px" y="0px" viewBox="0 0 53 53" xmlns="http://www.w3.org/2000/svg">
  <path d="M 53 22.5 L 50 22.5 L 50 24.5 C 50 25.053 49.552 25.5 49 25.5 L 43 25.5 C 42.448 25.5 42 25.053 42 24.5 L 42 22.5 L 23.474 22.5 C 22.11 22.5 21 23.609 21 24.974 L 21 40.5 L 23 40.5 C 23.552 40.5 24 40.947 24 41.5 L 24 47.5 C 24 48.053 23.552 48.5 23 48.5 L 21 48.5 L 21 51.5 L 3 51.5 L 3 48.5 L 1 48.5 C 0.448 48.5 0 48.053 0 47.5 L 0 41.5 C 0 40.947 0.448 40.5 1 40.5 L 3 40.5 L 3 19.068 C 3 11.035 9.535 4.5 17.568 4.5 L 42 4.5 L 42 2.5 C 42 1.947 42.448 1.5 43 1.5 L 49 1.5 C 49.552 1.5 50 1.947 50 2.5 L 50 4.5 L 53 4.5 L 53 22.5 Z M 5 49.5 L 19 49.5 L 19 48.5 L 5 48.5 L 5 49.5 Z M 2 42.5 L 2 46.5 L 3 46.5 L 21 46.5 L 22 46.5 L 22 42.5 L 21 42.5 L 3 42.5 L 2 42.5 Z M 17.568 6.5 C 10.638 6.5 5 12.138 5 19.068 L 5 40.5 L 19 40.5 L 19 24.974 C 19 22.507 21.007 20.5 23.474 20.5 L 42 20.5 L 42 6.5 L 17.568 6.5 Z M 48 3.5 L 44 3.5 L 44 4.5 L 44 22.5 L 44 23.5 L 48 23.5 L 48 22.5 L 48 4.5 L 48 3.5 Z M 51 6.5 L 50 6.5 L 50 20.5 L 51 20.5 L 51 6.5 Z"/>
  <g/>
  <g/>
  <g/>
  <g/>
  <g/>
  <g/>
  <g/>
  <g/>
  <g/>
  <g/>
  <g/>
  <g/>
  <g/>
  <g/>
  <g/>
</svg>