<?xml version="1.0" encoding="utf-8"?>
<svg id="Capa_1" style="enable-background:new 0 0 53 53;" x="0px" y="0px" viewBox="0 0 53 53" xmlns="http://www.w3.org/2000/svg">
  <path d="M 53 30.5 L 50 30.5 L 50 28.5 C 50 27.947 49.552 27.5 49 27.5 L 43 27.5 C 42.448 27.5 42 27.947 42 28.5 L 42 30.5 L 23.474 30.5 C 22.11 30.5 21 29.391 21 28.026 L 21 12.5 L 23 12.5 C 23.552 12.5 24 12.053 24 11.5 L 24 5.5 C 24 4.947 23.552 4.5 23 4.5 L 21 4.5 L 21 1.5 L 3 1.5 L 3 4.5 L 1 4.5 C 0.448 4.5 0 4.947 0 5.5 L 0 11.5 C 0 12.053 0.448 12.5 1 12.5 L 3 12.5 L 3 33.932 C 3 41.965 9.535 48.5 17.568 48.5 L 42 48.5 L 42 50.5 C 42 51.053 42.448 51.5 43 51.5 L 49 51.5 C 49.552 51.5 50 51.053 50 50.5 L 50 48.5 L 53 48.5 L 53 30.5 Z M 5 3.5 L 19 3.5 L 19 4.5 L 5 4.5 L 5 3.5 Z M 2 10.5 L 2 6.5 L 3 6.5 L 21 6.5 L 22 6.5 L 22 10.5 L 21 10.5 L 3 10.5 L 2 10.5 Z M 17.568 46.5 C 10.638 46.5 5 40.862 5 33.932 L 5 12.5 L 19 12.5 L 19 28.026 C 19 30.493 21.007 32.5 23.474 32.5 L 42 32.5 L 42 46.5 L 17.568 46.5 Z M 48 49.5 L 44 49.5 L 44 48.5 L 44 30.5 L 44 29.5 L 48 29.5 L 48 30.5 L 48 48.5 L 48 49.5 Z M 51 46.5 L 50 46.5 L 50 32.5 L 51 32.5 L 51 46.5 Z"/>
  <g/>
  <g/>
  <g/>
  <g/>
  <g/>
  <g/>
  <g/>
  <g/>
  <g/>
  <g/>
  <g/>
  <g/>
  <g/>
  <g/>
  <g/>
</svg>