<?xml version="1.0" encoding="utf-8"?>
<svg style="shape-rendering:geometricPrecision; text-rendering:geometricPrecision; image-rendering:optimizeQuality; fill-rule:evenodd; clip-rule:evenodd" width="8.5in" height="11in" viewBox="0 0 8500 11000" xmlns="http://www.w3.org/2000/svg">
  <defs>
    <style type="text/css">
   
    .fil0 {fill:black}
   
  </style>
  </defs>
  <g id="Layer_x0020_1" transform="matrix(1, 0, 0, 1, -28.499102, -28.499836)">
    <path class="fil0" d="M6242 5809c0,77 63,140 140,140 78,0 141,-63 141,-140 0,-78 -63,-141 -141,-141 -77,0 -140,63 -140,141zm-979 -3648l278 0 0 -561 -2525 0 0 562 272 0 0 0 0 0 0 0 0 0 1 0 0 0 1 0 0 0 0 0 0 0 0 0 2 -1 0 0 0 0 0 0 0 0 0 0 0 0 1 0 0 0 0 0 0 0 0 0 3 0 0 0 0 0 1964 0 3 0zm-4352 2385l0 -2 0 -278 -561 0 0 2525 562 0 0 -273 0 0 0 0 0 0 0 0 0 0 0 -1 0 0 0 0 0 0 0 -1 0 0 -1 -1 0 0 0 -1 0 0 0 0 0 0 0 0 0 0 0 0 0 0 0 0 0 -1 0 -3 0 0 0 0 0 -1964zm2105 4349l0 561 2525 0 0 -561 -281 0 -561 0 -1403 0 -280 0zm4348 -2946l-420 0c-78,0 -141,-63 -141,-140 0,-78 63,-141 141,-141l420 0 0 -982 -2104 0c-77,0 -140,-62 -140,-140l0 -2104 -1684 0 0 2104c0,78 -62,140 -140,140l-2104 0 0 1684 2104 0c78,0 140,63 140,140l0 2104 1123 0 0 -561c0,-77 62,-140 140,-140 78,0 140,63 140,140l0 561 281 0 0 -2104c0,-77 63,-140 140,-140l2104 0 0 -421zm-1543 0l-982 0 0 1263c0,77 -62,140 -140,140 -78,0 -140,-63 -140,-140l0 -1403c0,-78 62,-141 140,-141l1122 0c78,0 141,63 141,141 0,77 -63,140 -141,140zm1824 -1683l0 280 0 1263 0 701 0 281 561 0 0 -2525 -561 0zm561 2805l-561 0c-155,0 -281,-126 -281,-280l0 -141 -1964 0 0 1964 141 0c154,0 280,126 280,281l0 561c0,155 -126,281 -280,281l0 0 -2525 0c-155,0 -281,-126 -281,-281l0 -561c0,-155 126,-281 281,-281l140 0 0 -1964 -1964 0 0 141c0,154 -126,280 -281,280l0 0 -561 0c-154,0 -280,-126 -280,-280l0 -2525c0,-155 126,-281 280,-281l561 0c155,0 281,126 281,281l0 140 1964 0 0 -1964 -140 0c-155,0 -281,-126 -281,-281l0 -561c0,-154 126,-280 281,-280l2525 0c154,0 280,126 280,280l0 561c0,155 -126,281 -280,281l0 0 -141 0 0 1964 1964 0 0 -140c0,-155 126,-281 281,-281l561 0c155,0 281,126 281,281l0 2525c0,154 -126,280 -281,280l0 0z"/>
  </g>
</svg>