<svg xmlns="http://www.w3.org/2000/svg" xmlns:xlink="http://www.w3.org/1999/xlink" viewBox="0 0 100 125" version="1.1" x="0px" y="0px"><title>Pipe Cross Outline</title><desc>Created with Sketch.</desc><g stroke="none" stroke-width="1" fill="none" fill-rule="evenodd"><g stroke="#000000" stroke-width="3.9108252"><path d="M32.7712665,77.4634921 L32.7712665,67.5714286 L24.4739075,67.5714286 C24.4739075,67.5714286 24.4771543,31.8134851 24.4771543,32.1448719 C24.4771543,33.1516644 24.4739075,71.5859664 24.4739075,71.5859664 C24.4739075,73.742825 22.7239647,75.4913043 20.5645787,75.4913043 L12.7310623,75.4913043 C10.5719997,75.4913043 8.82173356,73.7363676 8.82173356,71.5859664 L8.82173356,28.4140336 C8.82173356,26.257175 10.5716763,24.5086957 12.7310623,24.5086957 L20.5645787,24.5086957 C22.7236414,24.5086957 24.4739075,26.2636324 24.4739075,28.4140336 L24.4739075,32.4285714 L32.7712665,32.4285714 L32.7712665,22.5365079 C32.7712665,22.5365079 69.2042069,22.5329648 69.0865138,22.5329648 C68.9688207,22.5329648 28.8247739,22.5365079 28.8247739,22.5365079 C26.6633408,22.5365079 24.9111531,20.782761 24.9111531,18.6358204 L24.9111531,12.9006875 C24.9111531,10.7463973 26.6698119,9 28.8247739,9 L72.0882696,9 C74.2497027,9 76.0018904,10.7537469 76.0018904,12.9006875 L76.0018904,18.6358204 C76.0018904,20.7901106 74.2432315,22.5365079 72.0882696,22.5365079 L68.1417769,22.5365079 L68.1417769,32.4285714 L75.5286879,32.4285714 C75.5286879,32.4285714 75.5289477,68.6243407 75.5289477,68.4938166 C75.5289477,67.2861615 75.5286879,28.4140336 75.5286879,28.4140336 C75.5286879,26.257175 77.2786306,24.5086957 79.4380166,24.5086957 L87.271533,24.5086957 C89.4305957,24.5086957 91.1808618,26.2636324 91.1808618,28.4140336 L91.1808618,71.5859664 C91.1808618,73.742825 89.430919,75.4913043 87.271533,75.4913043 L79.4380166,75.4913043 C77.2789539,75.4913043 75.5286879,73.7363676 75.5286879,71.5859664 L75.5286879,67.5714286 L68.1417769,67.5714286 L68.1417769,77.4634921 C68.1417769,77.4634921 32.0792102,77.4598854 32.1804994,77.4598854 C33.3947077,77.4598854 72.0882696,77.4634921 72.0882696,77.4634921 C74.2497027,77.4634921 76.0018904,79.217239 76.0018904,81.3641796 L76.0018904,87.0993125 C76.0018904,89.2536027 74.2432315,91 72.0882696,91 L28.8247739,91 C26.6633408,91 24.9111531,89.2462531 24.9111531,87.0993125 L24.9111531,81.3641796 C24.9111531,79.2098894 26.6698119,77.4634921 28.8247739,77.4634921 L32.7712665,77.4634921 Z"/></g></g><text x="0" y="115" fill="#000000" font-size="5px" font-weight="bold" font-family="'Helvetica Neue', Helvetica, Arial-Unicode, Arial, Sans-serif">Created by Joel Wisneski</text><text x="0" y="120" fill="#000000" font-size="5px" font-weight="bold" font-family="'Helvetica Neue', Helvetica, Arial-Unicode, Arial, Sans-serif">from the Noun Project</text></svg>